<svg width="16" height="16" viewBox="0 0 16 16" fill="none" xmlns="http://www.w3.org/2000/svg">
<path d="M8.00004 14.6666H11.3334C13.3334 14.6666 14.6667 13.3333 14.6667 11.3333V7.99996C14.6667 6.19996 13.5334 4.86663 11.8667 4.66663C11.7334 4.66663 11.5334 4.66663 11.3334 4.66663H4.66671C4.46671 4.66663 4.33337 4.66661 4.13337 4.73328C2.40004 4.93328 1.33337 6.19996 1.33337 7.99996C1.33337 8.19996 1.33337 8.46663 1.33337 8.66663" stroke="#DDE2FF" stroke-width="1.2" stroke-linecap="round" stroke-linejoin="round"/>
<path d="M11.8666 4.66659C11.7333 4.66659 11.5333 4.66659 11.3333 4.66659H4.66664C4.46664 4.66659 4.3333 4.66658 4.1333 4.73324C4.19997 4.53324 4.3333 4.39992 4.5333 4.19992L6.66664 1.99993C7.59997 1.06659 9.06664 1.06659 9.99997 1.99993L11.2 3.19992C11.6 3.59992 11.8 4.13326 11.8666 4.66659Z" stroke="#DDE2FF" stroke-width="1.2" stroke-linecap="round" stroke-linejoin="round"/>
<path d="M14.6667 8.33337H12.6667C11.9334 8.33337 11.3334 8.93337 11.3334 9.66671C11.3334 10.4 11.9334 11 12.6667 11H14.6667" stroke="#DDE2FF" stroke-width="1.2" stroke-linecap="round" stroke-linejoin="round"/>
<path d="M3.86771 14.2667C5.04771 14.2667 6.00104 13.3133 6.00104 12.1333C6.00104 10.9533 5.04771 10 3.86771 10C2.68771 10 1.73438 10.9533 1.73438 12.1333C1.73438 13.3133 2.68771 14.2667 3.86771 14.2667Z" stroke="#DDE2FF" stroke-width="1.2" stroke-linecap="round" stroke-linejoin="round"/>
<path d="M1.33337 14.6667L2.00004 14" stroke="#DDE2FF" stroke-width="1.2" stroke-linecap="round" stroke-linejoin="round"/>
</svg>
