<svg width="16" height="16" viewBox="0 0 16 16" fill="none" xmlns="http://www.w3.org/2000/svg">
<path d="M14.0534 5.71994V10.2799C14.0534 11.0266 13.6534 11.7199 13.0067 12.0999L9.04673 14.3866C8.40006 14.7599 7.60006 14.7599 6.94673 14.3866L2.98673 12.0999C2.34006 11.7266 1.94006 11.0333 1.94006 10.2799V5.71994C1.94006 4.97327 2.34006 4.27991 2.98673 3.89991L6.94673 1.61325C7.5934 1.23992 8.3934 1.23992 9.04673 1.61325L13.0067 3.89991C13.6534 4.27991 14.0534 4.96661 14.0534 5.71994Z" stroke="#DDE2FF" stroke-width="1.2" stroke-linecap="round" stroke-linejoin="round"/>
<path d="M7.99999 7.33346C8.85787 7.33346 9.55332 6.63799 9.55332 5.78011C9.55332 4.92223 8.85787 4.22681 7.99999 4.22681C7.14211 4.22681 6.44666 4.92223 6.44666 5.78011C6.44666 6.63799 7.14211 7.33346 7.99999 7.33346Z" stroke="#DDE2FF" stroke-width="1.2" stroke-linecap="round" stroke-linejoin="round"/>
<path d="M10.6667 11.1069C10.6667 9.90689 9.47337 8.93359 8.00004 8.93359C6.52671 8.93359 5.33337 9.90689 5.33337 11.1069" stroke="#DDE2FF" stroke-width="1.2" stroke-linecap="round" stroke-linejoin="round"/>
</svg>
