<svg width="17" height="15" viewBox="0 0 17 15" fill="none" xmlns="http://www.w3.org/2000/svg">
<path d="M15.9233 8.15796H10.2484C10.0004 8.15796 9.79822 8.36013 9.79822 8.60809C9.79822 8.7344 9.85189 8.84817 9.93559 8.93025L13.9316 12.9262C14.0137 13.0147 14.1322 13.07 14.2618 13.07C14.4181 13.07 14.5555 12.991 14.636 12.871C15.6185 11.7306 16.2503 10.2823 16.364 8.6886C16.3704 8.66177 16.3735 8.63493 16.3735 8.60804C16.3735 8.36013 16.1729 8.15796 15.9233 8.15796Z" fill="#DDE2FF"/>
<path d="M8.53768 0C8.28966 0.00151627 8.08911 0.20217 8.08911 0.450131V6.75687C8.08911 7.00645 8.28966 7.20862 8.53768 7.20862H14.846C15.094 7.20862 15.2962 7.00645 15.2962 6.75687C15.0734 3.12737 12.1688 0.222741 8.53768 0Z" fill="#DDE2FF"/>
<path d="M12.0023 12.5579L7.34923 7.90485C7.27028 7.82429 7.22292 7.71213 7.22292 7.59053L7.22126 1.01839C7.22126 0.770427 7.0207 0.569824 6.77269 0.569824C2.99307 0.80045 0 3.94035 0 7.77693C0 11.765 3.2332 14.9998 7.22126 14.9998C9.04078 14.9998 10.7024 14.3269 11.9722 13.2165C12.0702 13.1343 12.1318 13.0112 12.1318 12.8738C12.1318 12.7521 12.0828 12.64 12.0023 12.5579Z" fill="#DDE2FF"/>
</svg>
