<svg width="16" height="16" viewBox="0 0 16 16" fill="none" xmlns="http://www.w3.org/2000/svg">
<path d="M5.98002 14.6667H9.98002C13.3134 14.6667 14.6467 13.3334 14.6467 10V6.00004C14.6467 2.66671 13.3134 1.33337 9.98002 1.33337H5.98002C2.64669 1.33337 1.31335 2.66671 1.31335 6.00004V10C1.31335 13.3334 2.64669 14.6667 5.98002 14.6667Z" stroke="#DDE2FF" stroke-width="1.2" stroke-linecap="round" stroke-linejoin="round"/>
<path d="M1.31335 8.4667L5.31335 8.45337C5.81335 8.45337 6.37335 8.83336 6.56002 9.30003L7.32002 11.22C7.49335 11.6534 7.76669 11.6534 7.94002 11.22L9.46669 7.3467C9.61335 6.97337 9.88669 6.96003 10.0734 7.31337L10.7667 8.6267C10.9734 9.02003 11.5067 9.34003 11.9467 9.34003H14.6534" stroke="#DDE2FF" stroke-width="1.2" stroke-linecap="round" stroke-linejoin="round"/>
</svg>
