<svg width="15" height="8" viewBox="0 0 15 8" fill="none" xmlns="http://www.w3.org/2000/svg">
<path d="M14.8056 3.51375C14.6738 3.37007 11.5251 0 7.50008 0C3.47485 0 0.326354 3.37007 0.194297 3.51389C-0.0647909 3.79561 -0.0647909 4.20439 0.194449 4.48639C0.326353 4.63007 3.47485 8 7.50008 8C11.5251 8 14.6738 4.62979 14.8057 4.48611C15.0648 4.20439 15.0648 3.79561 14.8056 3.51375ZM8.72956 2.02444C9.00022 1.8878 9.37766 2.04458 9.57247 2.37448C9.76728 2.70451 9.70575 3.08286 9.43508 3.2195C9.16457 3.35627 8.78698 3.19935 8.59202 2.86946C8.39736 2.53942 8.45875 2.16107 8.72956 2.02444ZM7.50008 6.77903C4.68834 6.77903 2.32213 4.78205 1.50314 4C2.05619 3.47178 3.31538 2.39011 4.94043 1.74328C4.62346 2.18925 4.43763 2.72212 4.43763 3.2957C4.43763 4.85981 5.80862 6.12769 7.49992 6.12769C9.19123 6.12769 10.5624 4.85981 10.5624 3.2957C10.5624 2.72212 10.3767 2.18925 10.0597 1.74328C11.6848 2.39025 12.9438 3.47178 13.4969 4C12.6779 4.78248 10.3117 6.77903 7.50008 6.77903Z" fill="#363740"/>
</svg>
