<svg width="16" height="16" viewBox="0 0 16 16" fill="none" xmlns="http://www.w3.org/2000/svg">
<path d="M14.9258 13.257L14.9249 13.2561L10.5115 9.00357L10.5112 9.00335L9.51458 8.05559L14.9248 2.85553C15.0383 2.74643 15.1309 2.62479 15.1892 2.49028C15.2465 2.35812 15.2814 2.21384 15.2814 2.06842C15.2814 1.91603 15.2588 1.77033 15.1885 1.63436C15.1318 1.50406 15.0517 1.37152 14.9468 1.27072L14.9469 1.27068L14.9449 1.26896C14.8325 1.17173 14.7067 1.08334 14.5676 1.02763C14.4279 0.971703 14.2671 0.95 14.1198 0.95C13.9693 0.95 13.8202 0.983375 13.6732 1.03773L13.6732 1.03771L13.6719 1.03821C13.5328 1.09391 13.4065 1.1825 13.3037 1.2813L7.07432 7.26867C6.96993 7.369 6.88931 7.49108 6.83197 7.62334L6.83195 7.62334L6.83142 7.62466C6.77474 7.76631 6.73979 7.91024 6.73979 8.05579C6.73979 8.20121 6.77467 8.34549 6.83197 8.47765C6.88931 8.60992 6.96993 8.732 7.07432 8.83232L13.3037 14.8197L13.3037 14.8197L13.3047 14.8206C13.524 15.0204 13.8116 15.1193 14.1088 15.1193C14.4082 15.1193 14.6957 14.9976 14.9028 14.7985C15.121 14.5888 15.2371 14.3225 15.2373 14.0336C15.2486 13.7439 15.1325 13.4668 14.9258 13.257ZM13.6905 1.08463C13.8336 1.03174 13.9767 1 14.1198 1C14.2628 1 14.4169 1.02116 14.549 1.07405C14.6811 1.12694 14.8021 1.21157 14.9122 1.30677C15.0112 1.40198 15.0883 1.52892 15.1433 1.65586L13.6905 1.08463Z" fill="#363740" stroke="white" stroke-width="0.1"/>
<path d="M1.30566 2.81234L1.30658 2.81324L5.71996 7.06576L5.7202 7.06599L6.71686 8.01374L1.30662 13.2138C1.19311 13.3229 1.10057 13.4445 1.04226 13.5791C0.984965 13.7112 0.950087 13.8555 0.950087 14.0009C0.950087 14.1533 0.972634 14.299 1.04296 14.435C1.09963 14.5653 1.17975 14.6978 1.28461 14.7986L1.28456 14.7987L1.28655 14.8004C1.39895 14.8976 1.52477 14.986 1.66387 15.0417C1.80352 15.0976 1.96433 15.1193 2.11169 15.1193C2.26217 15.1193 2.41122 15.086 2.55826 15.0316L2.55826 15.0316L2.55951 15.0311C2.6986 14.9754 2.82496 14.8868 2.92776 14.788L9.15713 8.80066C9.26151 8.70033 9.34214 8.57826 9.39948 8.44599L9.3995 8.446L9.40002 8.44468C9.45671 8.30302 9.49165 8.15909 9.49165 8.01354C9.49165 7.86812 9.45677 7.72384 9.39948 7.59168C9.34214 7.45941 9.26151 7.33734 9.15713 7.23701L2.92776 1.24963L2.92777 1.24962L2.92677 1.24871C2.70742 1.04898 2.41983 0.950065 2.1227 0.950065C1.82323 0.950065 1.53577 1.0717 1.32864 1.27079C1.11043 1.48052 0.994377 1.74686 0.994111 2.03575C0.982815 2.32538 1.09891 2.60258 1.30566 2.81234Z" fill="#363740" stroke="white" stroke-width="0.1"/>
</svg>
