<svg width="17" height="17" viewBox="0 0 17 17" fill="none" xmlns="http://www.w3.org/2000/svg">
<g clip-path="url(#clip0)">
<path d="M10.8449 6.15912C10.625 6.15912 10.4468 6.33734 10.4468 6.55725V14.0818C10.4468 14.3016 10.625 14.48 10.8449 14.48C11.0648 14.48 11.243 14.3016 11.243 14.0818V6.55725C11.243 6.33734 11.0648 6.15912 10.8449 6.15912Z" fill="#6F6F6F"/>
<path d="M6.14715 6.15912C5.92725 6.15912 5.74902 6.33734 5.74902 6.55725V14.0818C5.74902 14.3016 5.92725 14.48 6.14715 14.48C6.36705 14.48 6.54528 14.3016 6.54528 14.0818V6.55725C6.54528 6.33734 6.36705 6.15912 6.14715 6.15912Z" fill="#6F6F6F"/>
<path d="M2.72303 5.061V14.87C2.72303 15.4497 2.93562 15.9942 3.30699 16.3849C3.67666 16.7766 4.19111 16.999 4.72952 16.9999H12.2622C12.8007 16.999 13.3152 16.7766 13.6847 16.3849C14.0561 15.9942 14.2687 15.4497 14.2687 14.87V5.061C15.0069 4.86505 15.4853 4.15185 15.3865 3.39432C15.2876 2.63695 14.6424 2.0704 13.8785 2.07024H11.8401V1.57259C11.8424 1.15409 11.677 0.75223 11.3807 0.456591C11.0844 0.161108 10.682 -0.00343011 10.2635 -8.72476e-06H6.72823C6.30973 -0.00343011 5.90725 0.161108 5.61099 0.456591C5.31473 0.75223 5.14926 1.15409 5.15159 1.57259V2.07024H3.11322C2.34932 2.0704 1.70407 2.63695 1.60516 3.39432C1.50641 4.15185 1.98478 4.86505 2.72303 5.061ZM12.2622 16.2037H4.72952C4.04881 16.2037 3.51928 15.6189 3.51928 14.87V5.09599H13.4724V14.87C13.4724 15.6189 12.9429 16.2037 12.2622 16.2037ZM5.94784 1.57259C5.9452 1.36528 6.02669 1.16575 6.17381 1.01941C6.32077 0.873067 6.52077 0.792665 6.72823 0.796242H10.2635C10.4709 0.792665 10.6709 0.873067 10.8179 1.01941C10.965 1.1656 11.0465 1.36528 11.0438 1.57259V2.07024H5.94784V1.57259ZM3.11322 2.86649H13.8785C14.2743 2.86649 14.5951 3.18733 14.5951 3.58312C14.5951 3.97891 14.2743 4.29974 13.8785 4.29974H3.11322C2.71743 4.29974 2.39659 3.97891 2.39659 3.58312C2.39659 3.18733 2.71743 2.86649 3.11322 2.86649Z" fill="#6F6F6F"/>
<path d="M8.49578 6.15912C8.27588 6.15912 8.09766 6.33734 8.09766 6.55725V14.0818C8.09766 14.3016 8.27588 14.48 8.49578 14.48C8.71567 14.48 8.89389 14.3016 8.89389 14.0818V6.55725C8.89389 6.33734 8.71567 6.15912 8.49578 6.15912Z" fill="#6F6F6F"/>
</g>
<defs>
<clipPath id="clip0">
<rect width="17" height="17" fill="white"/>
</clipPath>
</defs>
</svg>
